<?xml version="1.0" encoding="utf-8"?>
<!-- Generator: Adobe Illustrator 22.0.0, SVG Export Plug-In . SVG Version: 6.00 Build 0)  -->
<svg version="1.1" id="Layer_1" xmlns="http://www.w3.org/2000/svg" xmlns:xlink="http://www.w3.org/1999/xlink" x="0px" y="0px"
	 viewBox="0 0 209 534" style="enable-background:new 0 0 209 534;" xml:space="preserve">
<style type="text/css">
	.st0{opacity:0.7;fill:#00205B;}
	.st1{fill:#FFFFFF;}
	.st2{fill:#007EA8;}
	.st3{fill:none;stroke:#000000;stroke-width:0;stroke-linecap:round;stroke-linejoin:round;}
</style>
<title>hpswoosh4</title>
<g>
	<path class="st0" d="M99.1,421.4c-31.4-49.6-50.9-103.5-56.6-155.9c-5.8-53.1-0.7-105.6,14.7-151.9C70.3,74.3,90.6,40,116.3,13.5
		C49.5,70.3,7.7,158.6,10.9,264.2c3.2,106.7,49.6,205.7,119.4,268.7h75.6C165.9,506.8,128.1,467.3,99.1,421.4z"/>
	<path class="st1" d="M99.9,420.9c-31.3-49.4-50.8-103.2-56.5-155.5c-5.8-52.9-0.7-105.3,14.7-151.5C72.5,70.7,95.7,33.6,125.2,6.3
		c-1.6,1.2-3.1,2.5-4.6,3.7c-1.4,1.2-2.8,2.3-4.2,3.5C90.6,40,70.3,74.3,57.1,113.6c-15.4,46.3-20.5,98.9-14.7,151.9
		c5.7,52.4,25.3,106.3,56.6,155.9c29,45.9,66.9,85.3,106.8,111.4h0.9h0.9C167.4,506.8,129.2,467.2,99.9,420.9z"/>
	<path class="st2" d="M130.3,532.8c-69.7-63-116.2-161.9-119.4-268.7C7.7,158.6,49.5,70.3,116.3,13.5c1.4-1.2,2.8-2.4,4.2-3.5
		c1.5-1.3,3.1-2.5,4.6-3.7c2.2-1.7,4.5-3.4,6.7-5.1H1.3v531.7"/>
	<line class="st3" x1="205.9" y1="532.8" x2="130.3" y2="532.8"/>
	<line class="st3" x1="207.7" y1="532.8" x2="206.8" y2="532.8"/>
	<line class="st3" x1="205.9" y1="532.8" x2="206.8" y2="532.8"/>
	<line class="st3" x1="3.2" y1="532.8" x2="1.3" y2="532.8"/>
	<path class="st3" d="M130.3,532.8"/>
	<line class="st3" x1="3.7" y1="532.8" x2="4.2" y2="532.8"/>
</g>
</svg>
