<svg xmlns="http://www.w3.org/2000/svg" viewBox="0 0 630.7 202.5"><defs><style>.cls-1{fill:#00205b;opacity:0.7;}.cls-2{fill:#fff;opacity:0.6;}.cls-3{fill:#007EA8;}</style></defs><title>LargeCTA_swoosh</title><g id="Layer_2" data-name="Layer 2"><g id="Layer_1-2" data-name="Layer 1"><path class="cls-1" d="M62.44,143.8c23.4,10.18,120.37,15.7,146.31,15.7,19.65,0,39.27-.75,58.57-2.29C451.56,142.53,530.3,89.9,630.7,5V97.65C545.72,150,398.61,185,282.45,185,237.37,185,115.78,167,62.44,143.8Z"/><path class="cls-2" d="M267.07,155.24C449.09,140.74,523.9,90.64,630.7,0V5C530.3,89.9,451.56,142.53,267.32,157.21c-19.3,1.54-38.92,2.29-58.57,2.29a773.5,773.5,0,0,1-77.32-3.9c-47.78-6-92.28-13.64-131.43-27v-1C82.16,155.67,181.4,162.07,267.07,155.24Z"/><path class="cls-3" d="M362.53,178.5C214.81,193.19,58.15,158.05,0,109.93V202.5H630.7V71.89C582.09,122.57,489.5,165.87,362.53,178.5Z"/></g></g></svg>